HIERARCHY
ROOT joint_Root
{
  OFFSET 0 0 0
  CHANNELS 6 Xposition Yposition Zposition Zrotation Xrotation Yrotation
  JOINT Hips
  {
    OFFSET 0.847027 93.984 -452.225
    CHANNELS 6 Xposition Yposition Zposition Zrotation Xrotation Yrotation
    JOINT Spine
    {
      OFFSET 15.7357 0 0
      CHANNELS 6 Xposition Yposition Zposition Zrotation Xrotation Yrotation
      JOINT Chest
      {
        OFFSET 8.98455 -0.406207 0
        CHANNELS 6 Xposition Yposition Zposition Zrotation Xrotation Yrotation
        JOINT Neck
        {
          OFFSET 16.3773 0 0
          CHANNELS 6 Xposition Yposition Zposition Zrotation Xrotation Yrotation
          JOINT Head
          {
            OFFSET 6.45672 0 0
            CHANNELS 6 Xposition Yposition Zposition Zrotation Xrotation Yrotation
            End Site
            {
              OFFSET 0 0 0
            }
          }
        }
        JOINT Shoulder_L
        {
          OFFSET 12.9942 -0.242716 4.98039
          CHANNELS 6 Xposition Yposition Zposition Zrotation Xrotation Yrotation
          JOINT UpperArm_L
          {
            OFFSET 5.34809 0 0
            CHANNELS 6 Xposition Yposition Zposition Zrotation Xrotation Yrotation
            JOINT LowerArm_L
            {
              OFFSET 24.3286 1.87007e-05 0
              CHANNELS 6 Xposition Yposition Zposition Zrotation Xrotation Yrotation
              JOINT Hand_L
              {
                OFFSET 22.2916 0 0
                CHANNELS 6 Xposition Yposition Zposition Zrotation Xrotation Yrotation
                End Site
                {
                  OFFSET 0 0 0
                }
              }
            }
          }
        }
        JOINT Shoulder_R
        {
          OFFSET 12.9945 -0.242716 -4.98039
          CHANNELS 6 Xposition Yposition Zposition Zrotation Xrotation Yrotation
          JOINT UpperArm_R
          {
            OFFSET -5.34813 0 0
            CHANNELS 6 Xposition Yposition Zposition Zrotation Xrotation Yrotation
            JOINT LowerArm_R
            {
              OFFSET -24.3289 0.000322201 0
              CHANNELS 6 Xposition Yposition Zposition Zrotation Xrotation Yrotation
              JOINT Hand_R
              {
                OFFSET -22.2915 -0.000108084 0
                CHANNELS 6 Xposition Yposition Zposition Zrotation Xrotation Yrotation
                End Site
                {
                  OFFSET 0 0 0
                }
              }
            }
          }
        }
      }
    }
    JOINT UpperLeg_L
    {
      OFFSET -2.19248 -6.46944 0
      CHANNELS 6 Xposition Yposition Zposition Zrotation Xrotation Yrotation
      JOINT LowerLeg_L
      {
        OFFSET 39.0811 0 -1.23785e-05
        CHANNELS 6 Xposition Yposition Zposition Zrotation Xrotation Yrotation
        JOINT Foot_L
        {
          OFFSET 40.9854 0 -1.26872e-05
          CHANNELS 6 Xposition Yposition Zposition Zrotation Xrotation Yrotation
          JOINT Toes_L
          {
            OFFSET 11.7543 0 0
            CHANNELS 6 Xposition Yposition Zposition Zrotation Xrotation Yrotation
            End Site
            {
              OFFSET 0 0 0
            }
          }
        }
      }
    }
    JOINT UpperLeg_R
    {
      OFFSET -2.19251 6.46944 0
      CHANNELS 6 Xposition Yposition Zposition Zrotation Xrotation Yrotation
      JOINT LowerLeg_R
      {
        OFFSET -39.0811 -0.00228153 -0.0401928
        CHANNELS 6 Xposition Yposition Zposition Zrotation Xrotation Yrotation
        JOINT Foot_R
        {
          OFFSET -40.9854 0 0
          CHANNELS 6 Xposition Yposition Zposition Zrotation Xrotation Yrotation
          JOINT Toes_R
          {
            OFFSET -11.7543 0 0
            CHANNELS 6 Xposition Yposition Zposition Zrotation Xrotation Yrotation
            End Site
            {
              OFFSET 0 0 0
            }
          }
        }
      }
    }
  }
}
MOTION
Frames:	4
Frame Time:	0.0333333
0 0 0 0 0 -0 -2.51552 93.2592 -1.96889 89.4201 -1.76459 0.901286 15.7357 5.1072e-06 -5.51765e-07 92.4025 86.9425 -94.2234 8.98455 -0.406207 -4.3199e-07 -1.64749 0.405765 -3.63513 16.3773 -1.3905e-06 -6.99897e-07 -0.249913 -2.31055 3.00331 6.45672 -1.25837e-06 -1.02172e-07 -1.42867 -0.848955 -3.82114 12.9942 -0.242716 4.98039 -90.4655 1.90761 -91.2857 5.34809 -7.22636e-06 -6.2814e-07 -80.0933 65.8661 41.715 24.3286 1.87007e-05 4.90208e-06 12.607 0.266133 -88.8102 22.2916 -9.88446e-07 4.63217e-06 44.9123 5.64633 -27.5719 12.9945 -0.242716 -4.98039 93.7014 -8.94716 -82.4148 -5.34813 -1.25947e-06 -3.79883e-06 3.20391 -75.3151 -37.118 -24.3289 0.000322201 -8.65921e-06 1.53677 10.5717 -8.33018 -22.2915 -0.000108084 -4.47941e-06 14.6484 5.30702 -0.125052 -2.19248 -6.46944 -1.22534e-07 -173.437 -9.54408 1.52066 39.0811 -6.73843e-06 -1.23785e-05 -0.00743368 0.0694599 8.42491 40.9854 -6.48686e-06 -1.26872e-05 -4.58067 2.64123 -58.459 11.7543 -2.30145e-07 3.05095e-06 0.017026 -0.0264812 -17.0506 -2.19251 6.46944 -1.45247e-06 175.033 17.4651 -179.393 -39.0811 -0.00228153 -0.0401928 -0.00132898 0.051362 9.37147 -40.9854 7.72618e-06 5.99936e-06 -3.29022 7.02161 -57.9713 -11.7543 -5.6619e-06 -5.58687e-06 0.137809 -0.157416 -18.1125 
0 0 0 0 0 -0 -2.58283 93.2479 -2.02142 89.2473 -2.17885 1.05774 15.7357 5.1072e-06 -5.51765e-07 95.1007 86.9517 -97.0408 8.98455 -0.406207 -4.3199e-07 -1.67879 0.701731 -3.86884 16.3773 -1.3905e-06 -6.99897e-07 -0.239802 -2.5086 3.53314 6.45672 -1.25837e-06 -1.02172e-07 -1.53825 -0.711723 -3.68496 12.9942 -0.242716 4.98039 -90.5322 2.23203 -91.5848 5.34809 -7.22636e-06 -6.2814e-07 -79.421 66.6493 41.463 24.3286 1.87007e-05 4.90208e-06 12.3807 0.263218 -88.8013 22.2916 -9.88446e-07 4.63217e-06 45.7111 5.64498 -27.6876 12.9945 -0.242716 -4.98039 94.1459 -9.93807 -82.2172 -5.34813 -1.25947e-06 -3.79883e-06 -0.972953 -76.7925 -44.8319 -24.3289 0.000322201 -8.65921e-06 2.17189 8.37365 -14.6139 -22.2915 -0.000108084 -4.47941e-06 14.9706 5.3433 -1.1757 -2.19248 -6.46944 -1.22534e-07 -173.173 -9.85435 1.50609 39.0811 -6.73843e-06 -1.23785e-05 -0.00921282 0.0786345 8.87265 40.9854 -6.48686e-06 -1.26872e-05 -4.63332 2.56703 -58.6774 11.7543 -2.30145e-07 3.05095e-06 0.0160004 -0.024848 -17.0215 -2.19251 6.46944 -1.45247e-06 175.245 17.0784 -179.349 -39.0811 -0.00228153 -0.0401928 -0.00174076 0.0514063 9.42482 -40.9854 7.72618e-06 5.99936e-06 -3.21958 7.03441 -57.9548 -11.7543 -5.6619e-06 -5.58687e-06 0.139938 -0.159907 -18.1365 
0 0 0 0 0 -0 -2.60774 93.2506 -2.09161 89.0833 -2.67154 1.18183 15.7357 5.1072e-06 -5.51765e-07 97.9133 86.957 -99.9764 8.98455 -0.406207 -4.3199e-07 -1.71666 1.00829 -4.11021 16.3773 -1.3905e-06 -6.99897e-07 -0.259624 -2.61812 3.88557 6.45672 -1.25837e-06 -1.02172e-07 -1.6339 -0.614923 -3.48247 12.9942 -0.242716 4.98039 -90.5408 2.31557 -91.8503 5.34809 -7.22636e-06 -6.2814e-07 -79.0005 67.0248 41.3855 24.3286 1.87007e-05 4.90208e-06 12.0768 0.204127 -89.0462 22.2916 -9.88446e-07 4.63217e-06 45.6633 5.64946 -27.2784 12.9945 -0.242716 -4.98039 94.4463 -10.6979 -82.2719 -5.34813 -1.25947e-06 -3.79883e-06 -3.41985 -77.2085 -50.3246 -24.3289 0.000322201 -8.65921e-06 2.4207 6.06694 -21.8219 -22.2915 -0.000108084 -4.47941e-06 15.9879 5.38105 -2.32305 -2.19248 -6.46944 -1.22534e-07 -172.971 -10.0528 1.56266 39.0811 -6.73843e-06 -1.23785e-05 -0.0100304 0.0833486 9.11342 40.9854 -6.48686e-06 -1.26872e-05 -4.67137 2.3186 -58.8057 11.7543 -2.30145e-07 3.05095e-06 0.0153891 -0.0238947 -17.0045 -2.19251 6.46944 -1.45247e-06 175.427 16.7086 -179.246 -39.0811 -0.00228153 -0.0401928 -0.000297698 0.045139 9.23777 -40.9854 7.72618e-06 5.99936e-06 -3.184 7.16107 -57.7783 -11.7543 -5.6619e-06 -5.58687e-06 0.143043 -0.163554 -18.1719 
0 0 0 0 0 -0 -2.6086 93.2407 -2.16941 88.9305 -3.07044 1.33939 15.7357 5.1072e-06 -5.51765e-07 99.2189 86.9658 -101.347 8.98455 -0.406207 -4.3199e-07 -1.75118 1.14862 -4.23786 16.3773 -1.3905e-06 -6.99897e-07 -0.291831 -2.56577 3.92164 6.45672 -1.25837e-06 -1.02172e-07 -1.67321 -0.481995 -3.49256 12.9942 -0.242716 4.98039 -90.5176 2.24122 -91.9923 5.34809 -7.22636e-06 -6.2814e-07 -79.315 67.2436 41.7377 24.3286 1.87007e-05 4.90208e-06 11.3723 0.162775 -89.1909 22.2916 -9.88446e-07 4.63217e-06 45.521 5.65275 -26.9586 12.9945 -0.242716 -4.98039 94.6791 -11.2896 -82.3109 -5.34813 -1.25947e-06 -3.79883e-06 -7.92382 -77.0596 -57.717 -24.3289 0.000322201 -8.65921e-06 2.39986 4.29459 -29.2544 -22.2915 -0.000108084 -4.47941e-06 17.2047 5.41928 -3.57063 -2.19248 -6.46944 -1.22534e-07 -172.805 -10.0342 1.50616 39.0811 -6.73843e-06 -1.23785e-05 -0.012085 0.0931331 9.59691 40.9854 -6.48686e-06 -1.26872e-05 -4.69968 1.96347 -59.055 11.7543 -2.30145e-07 3.05095e-06 0.0139505 -0.021645 -16.9644 -2.19251 6.46944 -1.45247e-06 175.55 16.6184 -179.198 -39.0811 -0.00228153 -0.0401928 -0.00010301 0.0425454 9.26241 -40.9854 7.72618e-06 5.99936e-06 -3.1399 7.45109 -57.6936 -11.7543 -5.6619e-06 -5.58687e-06 0.141436 -0.161664 -18.1536 
